<?xml version="1.0" encoding="utf-8"?>
<!-- Generator: Adobe Illustrator 22.0.0, SVG Export Plug-In . SVG Version: 6.00 Build 0)  -->
<svg version="1.1" id="Layer_1" xmlns="http://www.w3.org/2000/svg" xmlns:xlink="http://www.w3.org/1999/xlink" x="0px" y="0px"
	 viewBox="0 0 215.4 81.3" style="enable-background:new 0 0 215.4 81.3;" xml:space="preserve">
<style type="text/css">
	.st0{fill:#FFFFFF;}
	.st1{fill:#C1272D;}
</style>
<g>
	<polygon class="st0" points="2.7,11.4 107.7,2.2 212.9,11.4 212.9,50.2 182.6,50.2 174.1,53.7 169.8,62.2 168.1,72.8 107.9,79.2 
		46.8,72.3 46.4,63.4 41.3,55.9 32.6,51.6 2.7,49.8 	"/>
	<path class="st1" d="M154.4,47.9c-2.2,0-3.9,0.5-5.2,1.5s-2,2.3-2,3.9c0,1.2,0.3,2.3,0.9,3.1c0.6,0.8,1.3,1.4,2.1,1.8
		c0.8,0.4,1.9,0.9,3.3,1.4s2.3,0.9,2.7,1.3c0.4,0.3,0.6,0.7,0.6,1.1c0,1.2-0.9,1.7-2.8,1.7c-1.1,0-2.1-0.2-3.1-0.6
		c-1-0.4-2.1-1-3.3-1.8v4.1c2.2,1.2,4.5,1.8,6.8,1.8c2.2,0,3.9-0.5,5.2-1.6c1.3-1,2-2.4,2-4.2c0-1.2-0.3-2.2-0.9-3
		c-0.6-0.8-1.3-1.4-2.2-1.9c-0.8-0.4-2-0.9-3.3-1.4c-1.4-0.5-2.3-0.9-2.6-1.3c-0.4-0.3-0.5-0.7-0.5-1c0-0.5,0.2-0.8,0.7-1.1
		s1.2-0.4,2-0.4c1.5,0,3.5,0.6,6,1.7v-3.7C158.5,48.4,156.4,47.9,154.4,47.9"/>
	<path class="st1" d="M127.9,67h4.7v-7.6h1.3c0.6,0,1.2,0.2,1.7,0.7s1.2,1.6,2,3.4c0.8,1.7,1.3,2.9,1.6,3.5h5.1
		c-0.8-1.7-1.6-3.5-2.5-5.3c-0.9-1.9-1.8-3-2.7-3.5c2.2-1,3.2-2.5,3.2-4.6c0-1.5-0.6-2.8-1.7-3.8c-1.1-1.1-2.6-1.6-4.4-1.6h-8.4
		L127.9,67L127.9,67z M135,51.6c1.8,0,2.7,0.7,2.7,2.1c0,0.7-0.2,1.2-0.7,1.6c-0.5,0.4-1.1,0.6-1.9,0.6h-2.5v-4.3L135,51.6z"/>
	<path class="st1" d="M105.8,50.8c-2,1.9-3,4.2-3,6.8s1,4.9,3,6.8s4.6,2.9,7.8,2.9c3.2,0,5.7-1,7.8-2.9c2-1.9,3-4.2,3-6.8
		s-1-4.8-3-6.8c-2-1.9-4.6-2.9-7.8-2.9S107.8,48.9,105.8,50.8 M109.3,61.8c-1.1-1.1-1.6-2.4-1.6-4.2c0-1.7,0.5-3.1,1.6-4.2
		c1.1-1.1,2.5-1.6,4.3-1.6s3.2,0.5,4.3,1.6c1.1,1.1,1.6,2.4,1.6,4.2c0,1.7-0.5,3.1-1.6,4.2c-1.1,1.1-2.5,1.6-4.3,1.6
		C111.8,63.3,110.4,62.8,109.3,61.8"/>
	<path class="st1" d="M80.7,50.8c-2,1.9-3,4.2-3,6.8s1,4.9,3,6.8s4.6,2.9,7.8,2.9c3.2,0,5.7-1,7.8-2.9c2-1.9,3-4.2,3-6.8
		s-1-4.8-3-6.8c-2-1.9-4.6-2.9-7.8-2.9C85.3,47.9,82.6,48.9,80.7,50.8 M84.1,61.8c-1.1-1.1-1.6-2.4-1.6-4.2c0-1.7,0.5-3.1,1.6-4.2
		c1.1-1.1,2.5-1.6,4.3-1.6s3.2,0.5,4.3,1.6c1.1,1.1,1.6,2.4,1.6,4.2c0,1.7-0.5,3.1-1.6,4.2c-1.1,1.1-2.5,1.6-4.3,1.6
		C86.7,63.3,85.2,62.8,84.1,61.8"/>
	<polygon class="st1" points="57.9,48.2 53.8,48.2 53.8,67 58.5,67 58.5,55.2 63.6,61.2 64.3,61.2 69.4,55.2 69.4,67 74.1,67 
		74.1,48.2 70,48.2 63.9,55.2 	"/>
	<polygon class="st1" points="29.5,15.8 29.5,20.8 21.7,21.3 21.7,42.8 16.6,42.8 16.6,21.6 9.4,22.1 9.4,17.4 	"/>
	<polygon class="st1" points="50.8,24.5 43.2,43.2 40.7,43.2 30.7,15.7 36.6,15.3 42.1,30.3 48.3,14.3 53.3,13.9 59.9,29.6 
		66.1,12.9 73.4,12.3 61.5,43.2 58.7,43.2 	"/>
	<polygon class="st1" points="86.3,42.8 86.3,28.1 74.8,12.2 83.5,11.5 90,21 96.8,10.4 106.5,9.6 93.9,27.8 93.9,42.7 	"/>
	<polygon class="st1" points="129.5,11.4 129.5,17.1 116,16.2 116,23.5 129.5,24.1 129.5,29.9 116,29.4 116,42.7 107.9,42.7 
		107.9,9.6 	"/>
	<path class="st1" d="M147.4,36.9c2.6,0,4.6-0.8,6.1-2.4c1.5-1.6,2.3-3.8,2.3-6.4c0-2.7-0.8-4.9-2.3-6.6s-3.6-2.7-6.1-2.9
		c-2.6-0.2-4.7,0.5-6.3,2.1s-2.5,3.8-2.5,6.6s0.8,5.1,2.5,6.8C142.7,36,144.8,36.9,147.4,36.9 M147.4,12.4c4.6,0.4,8.2,2.2,10.9,5.4
		s4,6.7,4,10.6c0,4-1.3,7.4-4.1,10.3c-2.8,3-6.4,4.4-10.9,4.4c-4.7,0-8.5-1.6-11.6-4.7c-3.1-3.2-4.7-7-4.7-11.3s1.6-7.9,4.6-10.9
		C138.8,13.3,142.7,12,147.4,12.4"/>
	<path class="st1" d="M169.8,19.7v6.4l3.1,0.1c1,0,1.8-0.2,2.3-0.7c0.6-0.5,0.9-1.3,0.9-2.3c0-2.1-1.1-3.2-3.3-3.4L169.8,19.7z
		 M163.7,14.1l10.8,0.9c2.3,0.2,4.1,1.1,5.5,2.7s2.1,3.5,2.1,5.7c0,3-1.3,5.2-3.9,6.5c1.2,0.7,2.2,2.4,3.3,5.2c1,2.8,2,5.3,2.9,7.7
		h-6.2c-0.4-0.9-1-2.6-2-5.2c-0.9-2.6-1.8-4.3-2.4-5c-0.7-0.8-1.4-1.1-2.2-1.2l-1.7-0.1v11.5h-6.1V14.1H163.7z"/>
	<path class="st1" d="M190.9,21.1v16.8l3.4,0.1c2.2,0,3.8-0.7,5-2.2c1.1-1.5,1.7-3.4,1.7-5.9s-0.6-4.6-1.7-6.1
		c-1.2-1.5-2.8-2.4-5-2.5L190.9,21.1z M185.5,15.8l9.4,0.8c3.5,0.3,6.2,1.7,8.2,4.2s2.9,5.6,2.9,9.4c0,3.9-1,7-3,9.2
		c-2,2.3-4.9,3.4-8.8,3.4h-8.9v-27C185.3,15.8,185.5,15.8,185.5,15.8z"/>
	<path class="st1" d="M215.4,13.5V8.8L107.7,0l0,0L0,8.8v2.8l0,0v37.8l0,0v3.2h29.7l0,0c8.1,0,14.7,6.6,14.7,14.7l0,0v5l0,0V75
		l63.3,6.4L171,75v-2.7l0,0v-5l0,0c0-8.1,6.6-14.7,14.7-14.7l0,0h29.7v-4.7l0,0V13.5L215.4,13.5z M210.7,47.9h-25l0,0
		c-10.7,0-19.4,8.7-19.4,19.4l0,0v3.4l-58.6,6l-58.6-6v-3.4l0,0c0-10.7-8.7-19.4-19.4-19.4l0,0h-25V13.1l103-8.4l103,8.4L210.7,47.9
		L210.7,47.9z"/>
</g>
</svg>
